<svg xmlns="http://www.w3.org/2000/svg" width="48.15" height="48.149" viewBox="0 0 48.15 48.149"><path d="M47.242,24.181,26.225,3.158a3.1,3.1,0,0,0-4.386,0l-4.37,4.367,5.537,5.537a3.684,3.684,0,0,1,4.663,4.695l5.337,5.337a3.688,3.688,0,1,1-2.207,2.08L25.818,20.2v13.1a3.687,3.687,0,1,1-3.033-.107V19.968a3.687,3.687,0,0,1-2-4.836L15.323,9.666.908,24.083a3.1,3.1,0,0,0,0,4.386L21.932,49.492a3.1,3.1,0,0,0,4.385,0L47.242,28.567a3.1,3.1,0,0,0,0-4.386Z" transform="translate(0 -2.25)" fill="#f05030"/></svg>