<svg xmlns="http://www.w3.org/2000/svg" width="39.523" height="38.535" viewBox="0 0 39.523 38.535">
  <path id="Icon_awesome-github" data-name="Icon awesome-github" d="M13.219,31.591c0,.159-.183.287-.414.287-.263.024-.446-.1-.446-.287,0-.159.183-.287.414-.287C13.012,31.28,13.219,31.408,13.219,31.591Zm-2.478-.359c-.056.159.1.343.343.39a.374.374,0,0,0,.494-.159c.048-.159-.1-.343-.343-.414A.409.409,0,0,0,10.741,31.233Zm3.522-.135c-.231.056-.39.207-.367.39.024.159.231.263.47.207s.39-.207.367-.367S14.494,31.073,14.263,31.1ZM19.506.563A19.107,19.107,0,0,0,0,20.005a19.977,19.977,0,0,0,13.506,19.06c1.02.183,1.379-.446,1.379-.964,0-.494-.024-3.219-.024-4.893,0,0-5.578,1.2-6.749-2.375,0,0-.908-2.319-2.215-2.916,0,0-1.825-1.251.127-1.227A4.206,4.206,0,0,1,9.1,28.746c1.745,3.076,4.669,2.191,5.809,1.665a4.429,4.429,0,0,1,1.275-2.685c-4.454-.494-8.948-1.139-8.948-8.8a6.039,6.039,0,0,1,1.881-4.693,7.529,7.529,0,0,1,.207-5.41c1.665-.518,5.5,2.151,5.5,2.151a18.824,18.824,0,0,1,10.008,0s3.833-2.677,5.5-2.151a7.525,7.525,0,0,1,.207,5.41,6.194,6.194,0,0,1,2.056,4.693c0,7.689-4.693,8.3-9.148,8.8a4.712,4.712,0,0,1,1.355,3.7c0,2.685-.024,6.008-.024,6.662,0,.518.367,1.147,1.379.964A19.793,19.793,0,0,0,39.523,20.005C39.523,8.953,30.558.563,19.506.563ZM7.745,28.045c-.1.08-.08.263.056.414.127.127.311.183.414.08.1-.08.08-.263-.056-.414C8.032,28,7.849,27.942,7.745,28.045ZM6.885,27.4c-.056.1.024.231.183.311a.237.237,0,0,0,.343-.056c.056-.1-.024-.231-.183-.311C7.068,27.3,6.94,27.32,6.885,27.4Zm2.582,2.837c-.127.1-.08.343.1.494.183.183.414.207.518.08.1-.1.056-.343-.1-.494C9.809,30.133,9.57,30.109,9.466,30.236Zm-.908-1.171c-.127.08-.127.287,0,.47s.343.263.446.183a.363.363,0,0,0,0-.494C8.893,29.041,8.685,28.962,8.558,29.065Z" transform="translate(0 -0.563)" fill="#bbb739"/>
</svg>
