<svg xmlns="http://www.w3.org/2000/svg" width="32.04" height="36" viewBox="0 0 32.04 36">
  <path id="Icon_simple-graphql" data-name="Icon simple-graphql" d="M21.076,4.127l7.4,4.275a3.207,3.207,0,1,1,3.082,5.326v8.549A3.211,3.211,0,1,1,28.4,27.531l-7.358,4.248a3.211,3.211,0,1,1-6.124.1l-7.4-4.271A3.21,3.21,0,1,1,4.44,22.274l0-8.549A3.209,3.209,0,1,1,6.8,7.827a3.122,3.122,0,0,1,.72.565l7.407-4.275a3.209,3.209,0,1,1,6.153.009ZM20.3,5.442a1.19,1.19,0,0,1-.087.087l9.691,16.785c.039-.014.084-.024.123-.035v-8.56a3.2,3.2,0,0,1-2.337-3.882c.009-.036.018-.073.028-.108L20.3,5.442Zm-4.523.089-.09-.09L8.273,9.719a3.2,3.2,0,0,1-2.191,3.967c-.039.012-.076.021-.114.031v8.562l.126.035L15.785,5.529l0,0Zm3.114.76a3.235,3.235,0,0,1-1.788,0L7.418,23.075a3.254,3.254,0,0,1,.9,1.562H27.684a3.227,3.227,0,0,1,.9-1.566L18.9,6.291Zm1.479,24.34,7.369-4.257c-.022-.07-.041-.141-.057-.213H8.313l-.031.125,7.409,4.278a3.215,3.215,0,0,1,4.684.068Z" transform="translate(-1.98)" fill="#e00097"/>
</svg>
