<svg xmlns="http://www.w3.org/2000/svg" width="38.535" height="38.535" viewBox="0 0 38.535 38.535">
  <path id="Icon_awesome-linkedin" data-name="Icon awesome-linkedin" d="M35.783,2.25H2.744A2.764,2.764,0,0,0,0,5.028V38.007a2.764,2.764,0,0,0,2.744,2.778H35.783a2.772,2.772,0,0,0,2.753-2.778V5.028A2.772,2.772,0,0,0,35.783,2.25ZM11.647,35.28H5.935V16.89h5.72V35.28Zm-2.856-20.9A3.312,3.312,0,1,1,12.1,11.067a3.313,3.313,0,0,1-3.312,3.312Zm24.265,20.9H27.345V26.335c0-2.133-.043-4.877-2.968-4.877-2.976,0-3.432,2.322-3.432,4.722v9.1H15.234V16.89h5.479V19.4h.077a6.016,6.016,0,0,1,5.41-2.968c5.78,0,6.856,3.811,6.856,8.765Z" transform="translate(0 -2.25)" fill="#bbb739"/>
</svg>
