<svg xmlns="http://www.w3.org/2000/svg" width="26.05" height="22.795" viewBox="0 0 26.05 22.795">
  <path id="Icon_awesome-react" data-name="Icon awesome-react" d="M21.278,9.638q-.412-.137-.824-.259c.046-.188.086-.377.127-.565.626-3.032.214-5.47-1.175-6.273-1.338-.768-3.521.031-5.729,1.954-.219.188-.432.387-.636.585-.137-.132-.28-.265-.422-.392C10.3,2.632,7.983,1.767,6.594,2.576c-1.333.773-1.73,3.068-1.17,5.938.056.285.117.565.188.85-.326.092-.646.193-.946.3C1.949,10.6,0,12.09,0,13.627c0,1.587,2.076,3.18,4.9,4.147.229.076.458.153.692.219-.076.305-.142.605-.2.916-.534,2.824-.117,5.063,1.216,5.831,1.374.794,3.684-.02,5.933-1.989.178-.158.356-.321.534-.494.224.219.458.427.692.631,2.178,1.872,4.33,2.63,5.658,1.862,1.374-.794,1.821-3.2,1.241-6.131q-.069-.336-.153-.687c.163-.046.321-.1.478-.148,2.936-.972,5.063-2.544,5.063-4.157C26.05,12.085,24.046,10.589,21.278,9.638Zm-6.884-4.32c1.893-1.649,3.658-2.295,4.462-1.832.86.494,1.191,2.488.651,5.108-.036.173-.071.341-.117.509a26.047,26.047,0,0,0-3.424-.539,25.707,25.707,0,0,0-2.167-2.7c.2-.188.392-.366.6-.544ZM8.507,16.268c.259.443.524.885.8,1.318A23.04,23.04,0,0,1,6.95,17.2,23.768,23.768,0,0,1,7.78,14.94C8.014,15.387,8.253,15.83,8.507,16.268ZM6.965,10.147c.733-.163,1.511-.3,2.32-.4-.27.422-.534.855-.784,1.292s-.494.875-.722,1.323c-.321-.758-.59-1.5-.814-2.218ZM8.36,13.652c.336-.7.7-1.389,1.089-2.066s.8-1.333,1.241-1.979c.763-.056,1.542-.086,2.335-.086s1.577.031,2.335.086q.649.962,1.236,1.969t1.1,2.056q-.511,1.053-1.1,2.076c-.387.677-.8,1.333-1.231,1.984-.758.056-1.547.081-2.346.081s-1.572-.025-2.32-.071q-.664-.969-1.252-1.984c-.392-.677-.753-1.364-1.094-2.066Zm9.189,2.605c.259-.448.5-.9.743-1.358a23.619,23.619,0,0,1,.86,2.254,22.348,22.348,0,0,1-2.391.407C17.035,17.133,17.294,16.695,17.548,16.257Zm.733-3.892c-.239-.448-.483-.9-.738-1.333s-.509-.86-.778-1.282a23.414,23.414,0,0,1,2.335.407,22.517,22.517,0,0,1-.819,2.208ZM13.035,6.641a22.342,22.342,0,0,1,1.506,1.821c-1.007-.046-2.02-.046-3.027,0C12.013,7.806,12.527,7.2,13.035,6.641Zm-5.9-3.119c.855-.5,2.753.214,4.752,1.984.127.112.254.234.387.356a25.85,25.85,0,0,0-2.183,2.7,26.82,26.82,0,0,0-3.419.529C6.6,8.834,6.548,8.57,6.492,8.3c-.478-2.463-.163-4.32.641-4.783ZM5.887,16.934c-.214-.061-.422-.127-.631-.2A10.377,10.377,0,0,1,2.05,15.148a2.283,2.283,0,0,1-.957-1.521c0-.931,1.608-2.122,3.928-2.931.29-.1.585-.193.88-.28a27.055,27.055,0,0,0,1.247,3.236A27.812,27.812,0,0,0,5.887,16.934Zm5.933,4.986a9.313,9.313,0,0,1-2.87,1.8,2.252,2.252,0,0,1-1.8.066c-.809-.468-1.145-2.264-.687-4.681.056-.285.117-.57.188-.85a25.454,25.454,0,0,0,3.455.5,26.851,26.851,0,0,0,2.2,2.717C12.145,21.625,11.982,21.778,11.819,21.92Zm1.247-1.236c-.519-.56-1.038-1.18-1.542-1.847.488.02.992.031,1.5.031.524,0,1.038-.01,1.547-.036a21.942,21.942,0,0,1-1.506,1.852Zm6.65,1.526a2.261,2.261,0,0,1-.84,1.593c-.809.468-2.534-.142-4.4-1.74-.214-.183-.427-.382-.646-.585a25.17,25.17,0,0,0,2.147-2.727,25.082,25.082,0,0,0,3.47-.534c.051.209.1.417.137.621a9.275,9.275,0,0,1,.127,3.373Zm.926-5.47c-.142.046-.285.092-.432.132a25.847,25.847,0,0,0-1.3-3.246,25.718,25.718,0,0,0,1.247-3.2c.265.076.519.158.763.239,2.371.814,4.035,2.025,4.035,2.951,0,1-1.776,2.284-4.315,3.124Zm-7.617-.763a2.33,2.33,0,1,0-2.33-2.33A2.33,2.33,0,0,0,13.025,15.978Z" transform="translate(0 -2.251)" fill="#61dafb"/>
</svg>
