<svg xmlns="http://www.w3.org/2000/svg" width="38.012" height="38.535" viewBox="0 0 38.012 38.535">
  <path id="Path_52" data-name="Path 52" d="M86.947,111.689a19.761,19.761,0,0,0-18.888,13.549h2.8A16.144,16.144,0,0,1,71.9,123h5.387a22.7,22.7,0,0,0-.588,2.24h2.729a21.06,21.06,0,0,1,.688-2.24h5.2v2.24h2.634V123h5.616a19.65,19.65,0,0,1,.77,2.24h2.729A22.035,22.035,0,0,0,96.4,123H102a16.136,16.136,0,0,1,1.041,2.24h2.793A19.753,19.753,0,0,0,86.947,111.689Zm3.975,3.1a17.161,17.161,0,0,1,9.238,5.575H95.274A18.481,18.481,0,0,0,90.922,114.788Zm-8.721.194a17.494,17.494,0,0,0-3.881,5.381H73.733A17.14,17.14,0,0,1,82.2,114.982Zm5.745.847a15.183,15.183,0,0,1,4.252,4.534H87.946Zm-2.634.018v4.516H81.342A13.947,13.947,0,0,1,85.312,115.846ZM68.846,127.784a1.126,1.126,0,0,0-.659.182.541.541,0,0,0-.265.453,1.739,1.739,0,0,0,.123.553l1.4,4.022c.043.12.092.256.147.4a1.375,1.375,0,0,0,.223.382.919.919,0,0,0,.37.259,1.559,1.559,0,0,0,.588.094,1.345,1.345,0,0,0,.7-.159.959.959,0,0,0,.37-.347,6.313,6.313,0,0,0,.259-.594l1.253-3.528,1.247,3.546c.1.263.186.457.253.582a.932.932,0,0,0,.365.347,1.383,1.383,0,0,0,.706.153,1.362,1.362,0,0,0,.723-.159.948.948,0,0,0,.359-.365,5.821,5.821,0,0,0,.241-.612l1.4-4.022a1.933,1.933,0,0,0,.129-.553.537.537,0,0,0-.271-.453,1.133,1.133,0,0,0-.653-.182,1.036,1.036,0,0,0-.594.141.806.806,0,0,0-.282.312,3.289,3.289,0,0,0-.159.441l-.988,3.423-1.106-3.2a5.994,5.994,0,0,0-.253-.588,1.01,1.01,0,0,0-.37-.359,1.407,1.407,0,0,0-.747-.165,1.482,1.482,0,0,0-.747.159,1.021,1.021,0,0,0-.394.37,4.268,4.268,0,0,0-.253.582l-1.1,3.2-.994-3.446a1.956,1.956,0,0,0-.3-.629A.87.87,0,0,0,68.846,127.784Zm13.543,0a1.126,1.126,0,0,0-.659.182.541.541,0,0,0-.265.453,1.783,1.783,0,0,0,.129.553l1.4,4.022c.043.12.092.256.147.4a1.361,1.361,0,0,0,.218.382.919.919,0,0,0,.37.259,1.559,1.559,0,0,0,.588.094,1.368,1.368,0,0,0,.706-.159.939.939,0,0,0,.365-.347,6.317,6.317,0,0,0,.259-.594L86.9,129.5l1.247,3.546c.1.263.186.457.253.582a.932.932,0,0,0,.365.347,1.382,1.382,0,0,0,.706.153,1.362,1.362,0,0,0,.723-.159.948.948,0,0,0,.359-.365,5.824,5.824,0,0,0,.241-.612l1.4-4.022a1.933,1.933,0,0,0,.129-.553.537.537,0,0,0-.271-.453,1.133,1.133,0,0,0-.653-.182,1.036,1.036,0,0,0-.594.141.806.806,0,0,0-.282.312,3.289,3.289,0,0,0-.159.441l-.988,3.423-1.106-3.2a5.994,5.994,0,0,0-.253-.588.988.988,0,0,0-.365-.359,1.407,1.407,0,0,0-.747-.165,1.507,1.507,0,0,0-.753.159,1.021,1.021,0,0,0-.394.37,4.267,4.267,0,0,0-.253.582l-1.1,3.2-.994-3.446a1.954,1.954,0,0,0-.294-.629.884.884,0,0,0-.729-.241Zm13.543,0a1.126,1.126,0,0,0-.659.182.541.541,0,0,0-.265.453,1.783,1.783,0,0,0,.129.553l1.4,4.022c.043.12.092.256.147.4a1.361,1.361,0,0,0,.218.382.919.919,0,0,0,.37.259,1.559,1.559,0,0,0,.588.094,1.368,1.368,0,0,0,.706-.159.939.939,0,0,0,.365-.347,6.025,6.025,0,0,0,.265-.594l1.247-3.528,1.247,3.546c.1.263.186.457.253.582a.932.932,0,0,0,.365.347,1.382,1.382,0,0,0,.706.153,1.362,1.362,0,0,0,.723-.159.948.948,0,0,0,.359-.365,5.824,5.824,0,0,0,.241-.612l1.4-4.022a1.933,1.933,0,0,0,.129-.553.531.531,0,0,0-.265-.453,1.152,1.152,0,0,0-.659-.182,1.036,1.036,0,0,0-.594.141.806.806,0,0,0-.282.312,3.287,3.287,0,0,0-.159.441l-.982,3.423-1.111-3.2a5.991,5.991,0,0,0-.253-.588.988.988,0,0,0-.365-.359,1.407,1.407,0,0,0-.747-.165,1.506,1.506,0,0,0-.753.159,1.021,1.021,0,0,0-.394.37,4.267,4.267,0,0,0-.253.582l-1.1,3.2-.988-3.446a1.956,1.956,0,0,0-.3-.629A.884.884,0,0,0,95.932,127.784Zm-27.974,8.544a19.922,19.922,0,0,0,37.977,0h-2.782a16.228,16.228,0,0,1-.953,2.193H96.555a22.414,22.414,0,0,0,.606-2.193H94.474a18.416,18.416,0,0,1-.688,2.193H87.946v-2.193H85.312v2.193H79.978a22.293,22.293,0,0,1-.623-2.193H76.65c.152.743.337,1.476.547,2.193h-5.5a16.258,16.258,0,0,1-.959-2.193Zm5.463,4.828h4.722a16.729,16.729,0,0,0,3.887,5.734A17.1,17.1,0,0,1,73.421,141.156Zm7.656,0h4.234v4.922A12.551,12.551,0,0,1,81.078,141.156Zm6.868,0h4.528a14.428,14.428,0,0,1-4.528,4.8Zm7.557,0h4.969a17.134,17.134,0,0,1-9.679,6,17.736,17.736,0,0,0,4.71-6Z" transform="translate(-67.923 -111.689)" fill="#bbb739"/>
</svg>
